# xmcd
# 
# Track frame offsets:
#     150
#     18271
#     35439
#     53580
#     68745
#     89443
#     103656
#     120924
#     138727
#     156040
#     174876
#     193037
#     207599
#     221133
#     238312
#     255559
#     271720
# 
# Disc length: 3800
# 
# Revision: 4
# Processed by: cddbd v1.5.2PL0 Copyright (c) Steve Scherf et al.
# Submitted via: BonkEnc v1.0.8
# 
DISCID=ed0ed611
DTITLE=Various Artist - Totally Country Vol. 3
DYEAR=2003
DGENRE=Country
TTITLE0=Tim McGraw - Unbroken
TTITLE1=Faith Hill - Cry
TTITLE2=Montgomery Gentry - Speed
TTITLE3=Randy Travis - Three Wooden Crosses
TTITLE4=Martina McBride - Blessed
TTITLE5=Rascal Flatts - Love You Out Loud
TTITLE6=Diamond Rio - Beautiful Mess
TTITLE7=Blake Shelton - The Baby
TTITLE8=Jo Dee Messina - Was That My Life
TTITLE9=Lonestar - Not A Day Goes By
TTITLE10=Kellie Coffey - When You Lie Next Me
TTITLE11=Phil Vasser - American Child
TTITLE12=Trick Pony - On A Mission
TTITLE13=Dusty Drake - One Last TIme
TTITLE14=Travis Tritt - Strong Enough To Be Your Man
TTITLE15=LeAnn Rimes - Life Goes On
TTITLE16=Andy Griggs - Tonight I Wanna Be Your Man
EXTD=
EXTT0=
EXTT1=
EXTT2=
EXTT3=
EXTT4=
EXTT5=
EXTT6=
EXTT7=
EXTT8=
EXTT9=
EXTT10=
EXTT11=
EXTT12=
EXTT13=
EXTT14=
EXTT15=
EXTT16=
PLAYORDER=
